<mxfile host="app.diagrams.net" modified="2023-02-27T15:56:17.931Z" agent="5.0 (Windows)" etag="Pb6hFMMxxScRT2hX4Ddm" version="20.8.18" type="github">
  <diagram name="Page-1" id="7zSeYHR6uxfxgGlFxZOC">
    <mxGraphModel dx="1436" dy="895" grid="1" gridSize="10" guides="1" tooltips="1" connect="1" arrows="1" fold="1" page="1" pageScale="1" pageWidth="850" pageHeight="1100" math="0" shadow="0">
      <root>
        <mxCell id="0" />
        <mxCell id="1" parent="0" />
        <mxCell id="1u6pHWlFP14e5-JuNZy--1" value="Hello everyone" style="rounded=1;whiteSpace=wrap;html=1;" vertex="1" parent="1">
          <mxGeometry x="110" y="80" width="120" height="60" as="geometry" />
        </mxCell>
        <mxCell id="1u6pHWlFP14e5-JuNZy--2" value="Alice&#39;s Symmetric key" style="aspect=fixed;perimeter=ellipsePerimeter;html=1;align=center;shadow=0;dashed=0;spacingTop=3;image;image=img/lib/active_directory/key.svg;" vertex="1" parent="1">
          <mxGeometry x="425" y="92" width="50" height="37" as="geometry" />
        </mxCell>
        <mxCell id="1u6pHWlFP14e5-JuNZy--3" value="Alice&#39;s public key" style="verticalLabelPosition=bottom;html=1;verticalAlign=top;align=center;strokeColor=none;fillColor=#00BEF2;shape=mxgraph.azure.access_control;" vertex="1" parent="1">
          <mxGeometry x="310" y="280" width="50" height="50" as="geometry" />
        </mxCell>
        <mxCell id="1u6pHWlFP14e5-JuNZy--4" value="Bob&#39;s private key" style="verticalLabelPosition=bottom;html=1;verticalAlign=top;align=center;strokeColor=#b85450;fillColor=#f8cecc;shape=mxgraph.azure.access_control;" vertex="1" parent="1">
          <mxGeometry x="500" y="620" width="50" height="50" as="geometry" />
        </mxCell>
        <mxCell id="1u6pHWlFP14e5-JuNZy--5" value="Jef&#39;s Public key" style="verticalLabelPosition=bottom;html=1;verticalAlign=top;align=center;strokeColor=#82b366;fillColor=#d5e8d4;shape=mxgraph.azure.access_control;" vertex="1" parent="1">
          <mxGeometry x="690" y="280" width="50" height="50" as="geometry" />
        </mxCell>
        <mxCell id="1u6pHWlFP14e5-JuNZy--10" value="" style="group" vertex="1" connectable="0" parent="1">
          <mxGeometry x="290" y="80" width="50" height="30" as="geometry" />
        </mxCell>
        <mxCell id="1u6pHWlFP14e5-JuNZy--14" value="" style="group" vertex="1" connectable="0" parent="1u6pHWlFP14e5-JuNZy--10">
          <mxGeometry width="50" height="30" as="geometry" />
        </mxCell>
        <mxCell id="1u6pHWlFP14e5-JuNZy--8" value="" style="endArrow=none;html=1;rounded=0;exitX=1;exitY=0.5;exitDx=0;exitDy=0;entryX=0;entryY=0.5;entryDx=0;entryDy=0;" edge="1" parent="1u6pHWlFP14e5-JuNZy--14" source="1u6pHWlFP14e5-JuNZy--1" target="1u6pHWlFP14e5-JuNZy--2">
          <mxGeometry width="50" height="50" relative="1" as="geometry">
            <mxPoint x="110" y="340" as="sourcePoint" />
            <mxPoint x="160" y="290" as="targetPoint" />
          </mxGeometry>
        </mxCell>
        <mxCell id="1u6pHWlFP14e5-JuNZy--9" value="encrypt" style="rounded=0;whiteSpace=wrap;html=1;" vertex="1" parent="1u6pHWlFP14e5-JuNZy--14">
          <mxGeometry width="50" height="30" as="geometry" />
        </mxCell>
        <mxCell id="1u6pHWlFP14e5-JuNZy--15" value="encrypt" style="rounded=0;whiteSpace=wrap;html=1;" vertex="1" parent="1">
          <mxGeometry x="340" y="200" width="50" height="30" as="geometry" />
        </mxCell>
        <mxCell id="1u6pHWlFP14e5-JuNZy--16" value="encrypt" style="rounded=0;whiteSpace=wrap;html=1;" vertex="1" parent="1">
          <mxGeometry x="510" y="200" width="50" height="30" as="geometry" />
        </mxCell>
        <mxCell id="1u6pHWlFP14e5-JuNZy--17" value="encrypt" style="rounded=0;whiteSpace=wrap;html=1;" vertex="1" parent="1">
          <mxGeometry x="650" y="200" width="50" height="30" as="geometry" />
        </mxCell>
        <mxCell id="1u6pHWlFP14e5-JuNZy--18" value="" style="endArrow=none;html=1;rounded=0;entryX=0;entryY=0.5;entryDx=0;entryDy=0;" edge="1" parent="1" source="1u6pHWlFP14e5-JuNZy--3">
          <mxGeometry width="50" height="50" relative="1" as="geometry">
            <mxPoint x="250" y="160" as="sourcePoint" />
            <mxPoint x="445" y="161" as="targetPoint" />
          </mxGeometry>
        </mxCell>
        <mxCell id="1u6pHWlFP14e5-JuNZy--19" value="" style="endArrow=none;html=1;rounded=0;entryX=0;entryY=0.5;entryDx=0;entryDy=0;" edge="1" parent="1">
          <mxGeometry width="50" height="50" relative="1" as="geometry">
            <mxPoint x="520" y="270" as="sourcePoint" />
            <mxPoint x="475" y="161" as="targetPoint" />
          </mxGeometry>
        </mxCell>
        <mxCell id="1u6pHWlFP14e5-JuNZy--20" value="" style="endArrow=none;html=1;rounded=0;entryX=0;entryY=0.5;entryDx=0;entryDy=0;" edge="1" parent="1">
          <mxGeometry width="50" height="50" relative="1" as="geometry">
            <mxPoint x="700" y="270" as="sourcePoint" />
            <mxPoint x="520" y="161" as="targetPoint" />
          </mxGeometry>
        </mxCell>
        <mxCell id="1u6pHWlFP14e5-JuNZy--29" value="Encrypted message" style="rounded=1;whiteSpace=wrap;html=1;fontColor=#4B0AFF;" vertex="1" parent="1">
          <mxGeometry x="40" y="580" width="120" height="60" as="geometry" />
        </mxCell>
        <mxCell id="1u6pHWlFP14e5-JuNZy--31" style="edgeStyle=orthogonalEdgeStyle;rounded=0;orthogonalLoop=1;jettySize=auto;html=1;exitX=0.755;exitY=0.79;exitDx=0;exitDy=0;exitPerimeter=0;entryX=0.6;entryY=0.8;entryDx=0;entryDy=0;entryPerimeter=0;fontColor=#4B0AFF;" edge="1" parent="1" source="1u6pHWlFP14e5-JuNZy--3" target="1u6pHWlFP14e5-JuNZy--3">
          <mxGeometry relative="1" as="geometry" />
        </mxCell>
        <mxCell id="1u6pHWlFP14e5-JuNZy--32" value="" style="endArrow=none;html=1;rounded=0;fontColor=#4B0AFF;" edge="1" parent="1">
          <mxGeometry width="50" height="50" relative="1" as="geometry">
            <mxPoint x="330" y="430" as="sourcePoint" />
            <mxPoint x="330" y="360" as="targetPoint" />
          </mxGeometry>
        </mxCell>
        <mxCell id="1u6pHWlFP14e5-JuNZy--33" value="" style="endArrow=none;html=1;rounded=0;fontColor=#4B0AFF;" edge="1" parent="1">
          <mxGeometry width="50" height="50" relative="1" as="geometry">
            <mxPoint x="530" y="430" as="sourcePoint" />
            <mxPoint x="530" y="360" as="targetPoint" />
          </mxGeometry>
        </mxCell>
        <mxCell id="1u6pHWlFP14e5-JuNZy--34" value="" style="endArrow=none;html=1;rounded=0;fontColor=#4B0AFF;" edge="1" parent="1">
          <mxGeometry width="50" height="50" relative="1" as="geometry">
            <mxPoint x="720" y="430" as="sourcePoint" />
            <mxPoint x="722" y="355" as="targetPoint" />
          </mxGeometry>
        </mxCell>
        <mxCell id="1u6pHWlFP14e5-JuNZy--37" value="Alice&#39;s encrypted key" style="sketch=0;aspect=fixed;pointerEvents=1;shadow=0;dashed=0;html=1;strokeColor=#6c8ebf;labelPosition=center;verticalLabelPosition=bottom;verticalAlign=top;align=center;fillColor=#dae8fc;shape=mxgraph.mscae.enterprise.key_permissions;" vertex="1" parent="1">
          <mxGeometry x="314" y="440" width="26" height="50" as="geometry" />
        </mxCell>
        <mxCell id="1u6pHWlFP14e5-JuNZy--38" value="Alice&#39;s encrypted key" style="sketch=0;aspect=fixed;pointerEvents=1;shadow=0;dashed=0;html=1;strokeColor=#b85450;labelPosition=center;verticalLabelPosition=bottom;verticalAlign=top;align=center;fillColor=#f8cecc;shape=mxgraph.mscae.enterprise.key_permissions;" vertex="1" parent="1">
          <mxGeometry x="512" y="440" width="26" height="50" as="geometry" />
        </mxCell>
        <mxCell id="1u6pHWlFP14e5-JuNZy--39" value="Alice&#39;s encrypted key" style="sketch=0;aspect=fixed;pointerEvents=1;shadow=0;dashed=0;html=1;strokeColor=#82b366;labelPosition=center;verticalLabelPosition=bottom;verticalAlign=top;align=center;fillColor=#d5e8d4;shape=mxgraph.mscae.enterprise.key_permissions;" vertex="1" parent="1">
          <mxGeometry x="709.5" y="440" width="26" height="50" as="geometry" />
        </mxCell>
        <mxCell id="1u6pHWlFP14e5-JuNZy--40" value="" style="endArrow=none;html=1;rounded=0;fontColor=#4B0AFF;" edge="1" parent="1">
          <mxGeometry width="50" height="50" relative="1" as="geometry">
            <mxPoint x="120" y="570" as="sourcePoint" />
            <mxPoint x="320" y="110" as="targetPoint" />
          </mxGeometry>
        </mxCell>
        <mxCell id="1u6pHWlFP14e5-JuNZy--41" value="&lt;div&gt;Alice&#39;s private key&lt;/div&gt;&lt;div&gt;&lt;br&gt;&lt;/div&gt;" style="verticalLabelPosition=bottom;html=1;verticalAlign=top;align=center;strokeColor=none;fillColor=#00BEF2;shape=mxgraph.azure.access_control;" vertex="1" parent="1">
          <mxGeometry x="302" y="620" width="50" height="50" as="geometry" />
        </mxCell>
        <mxCell id="1u6pHWlFP14e5-JuNZy--44" value="Bob&#39;s public key" style="verticalLabelPosition=bottom;html=1;verticalAlign=top;align=center;strokeColor=#b85450;fillColor=#f8cecc;shape=mxgraph.azure.access_control;" vertex="1" parent="1">
          <mxGeometry x="510" y="290" width="50" height="50" as="geometry" />
        </mxCell>
        <mxCell id="1u6pHWlFP14e5-JuNZy--45" value="Jeff&#39;s private key" style="verticalLabelPosition=bottom;html=1;verticalAlign=top;align=center;strokeColor=#82b366;fillColor=#d5e8d4;shape=mxgraph.azure.access_control;" vertex="1" parent="1">
          <mxGeometry x="697.5" y="620" width="50" height="50" as="geometry" />
        </mxCell>
        <mxCell id="1u6pHWlFP14e5-JuNZy--46" value="" style="endArrow=none;html=1;rounded=0;fontColor=#4B0AFF;" edge="1" parent="1">
          <mxGeometry width="50" height="50" relative="1" as="geometry">
            <mxPoint x="320" y="590" as="sourcePoint" />
            <mxPoint x="320" y="520" as="targetPoint" />
          </mxGeometry>
        </mxCell>
        <mxCell id="1u6pHWlFP14e5-JuNZy--47" value="" style="endArrow=none;html=1;rounded=0;fontColor=#4B0AFF;" edge="1" parent="1">
          <mxGeometry width="50" height="50" relative="1" as="geometry">
            <mxPoint x="520" y="585" as="sourcePoint" />
            <mxPoint x="520" y="515" as="targetPoint" />
          </mxGeometry>
        </mxCell>
        <mxCell id="1u6pHWlFP14e5-JuNZy--48" value="" style="endArrow=none;html=1;rounded=0;fontColor=#4B0AFF;" edge="1" parent="1">
          <mxGeometry width="50" height="50" relative="1" as="geometry">
            <mxPoint x="722" y="590" as="sourcePoint" />
            <mxPoint x="722" y="520" as="targetPoint" />
          </mxGeometry>
        </mxCell>
        <mxCell id="1u6pHWlFP14e5-JuNZy--49" value="decrypt" style="rounded=0;whiteSpace=wrap;html=1;" vertex="1" parent="1">
          <mxGeometry x="330" y="550" width="50" height="30" as="geometry" />
        </mxCell>
        <mxCell id="1u6pHWlFP14e5-JuNZy--50" value="decrypt" style="rounded=0;whiteSpace=wrap;html=1;" vertex="1" parent="1">
          <mxGeometry x="540" y="550" width="50" height="30" as="geometry" />
        </mxCell>
        <mxCell id="1u6pHWlFP14e5-JuNZy--51" value="decrypt" style="rounded=0;whiteSpace=wrap;html=1;" vertex="1" parent="1">
          <mxGeometry x="735.5" y="550" width="50" height="30" as="geometry" />
        </mxCell>
        <mxCell id="1u6pHWlFP14e5-JuNZy--56" value="Alice&#39;s Symmetric key" style="aspect=fixed;perimeter=ellipsePerimeter;html=1;align=center;shadow=0;dashed=0;spacingTop=3;image;image=img/lib/active_directory/key.svg;" vertex="1" parent="1">
          <mxGeometry x="490" y="790" width="50" height="37" as="geometry" />
        </mxCell>
        <mxCell id="1u6pHWlFP14e5-JuNZy--58" value="" style="endArrow=none;html=1;rounded=0;fontColor=#4B0AFF;" edge="1" parent="1">
          <mxGeometry width="50" height="50" relative="1" as="geometry">
            <mxPoint x="480" y="810" as="sourcePoint" />
            <mxPoint x="330" y="700" as="targetPoint" />
          </mxGeometry>
        </mxCell>
        <mxCell id="1u6pHWlFP14e5-JuNZy--59" value="" style="endArrow=none;html=1;rounded=0;fontColor=#4B0AFF;entryX=0.75;entryY=0;entryDx=0;entryDy=0;" edge="1" parent="1" target="1u6pHWlFP14e5-JuNZy--56">
          <mxGeometry width="50" height="50" relative="1" as="geometry">
            <mxPoint x="530" y="690" as="sourcePoint" />
            <mxPoint x="450" y="630" as="targetPoint" />
          </mxGeometry>
        </mxCell>
        <mxCell id="1u6pHWlFP14e5-JuNZy--60" value="" style="endArrow=none;html=1;rounded=0;fontColor=#4B0AFF;entryX=0.75;entryY=0;entryDx=0;entryDy=0;" edge="1" parent="1">
          <mxGeometry width="50" height="50" relative="1" as="geometry">
            <mxPoint x="710" y="700" as="sourcePoint" />
            <mxPoint x="536" y="802" as="targetPoint" />
          </mxGeometry>
        </mxCell>
        <mxCell id="1u6pHWlFP14e5-JuNZy--61" value="" style="endArrow=none;html=1;rounded=0;fontColor=#4B0AFF;" edge="1" parent="1">
          <mxGeometry width="50" height="50" relative="1" as="geometry">
            <mxPoint x="460" y="850" as="sourcePoint" />
            <mxPoint x="140" y="810" as="targetPoint" />
          </mxGeometry>
        </mxCell>
        <mxCell id="1u6pHWlFP14e5-JuNZy--62" value="Decrypt" style="endArrow=none;html=1;rounded=0;fontColor=#4B0AFF;exitX=0.417;exitY=1;exitDx=0;exitDy=0;exitPerimeter=0;" edge="1" parent="1" source="1u6pHWlFP14e5-JuNZy--29">
          <mxGeometry width="50" height="50" relative="1" as="geometry">
            <mxPoint x="400" y="680" as="sourcePoint" />
            <mxPoint x="180" y="940" as="targetPoint" />
          </mxGeometry>
        </mxCell>
        <mxCell id="1u6pHWlFP14e5-JuNZy--64" value="Hello everyone" style="rounded=1;whiteSpace=wrap;html=1;" vertex="1" parent="1">
          <mxGeometry x="182" y="910" width="120" height="60" as="geometry" />
        </mxCell>
      </root>
    </mxGraphModel>
  </diagram>
</mxfile>
